<?xml version="1.0" encoding="UTF-8" standalone="no" ?>
<!DOCTYPE svg PUBLIC "-//W3C//DTD SVG 1.1//EN" "http://www.w3.org/Graphics/SVG/1.1/DTD/svg11.dtd">
<svg xmlns="http://www.w3.org/2000/svg" xmlns:xlink="http://www.w3.org/1999/xlink" version="1.1" width="336.52296" height="40" viewBox="16.509889461814907 11.056864821244524 614.154402 73" xml:space="preserve">
<desc>Created with Fabric.js 4.6.0</desc>
<defs>
</defs>
<g transform="matrix(1.02 0 0 1.02 323.59 47.56)" id="rjrk6LKhpix5bmWttLcE6"  >
<g style="" vector-effect="non-scaling-stroke"   >
		<g transform="matrix(1 0 0 1 255.2 0)" id="7Z9zKnYJRx4MYOyyNPBn-"  >
<path style="stroke: none; stroke-width: 1; stroke-dasharray: none; stroke-linecap: butt; stroke-dashoffset: 0; stroke-linejoin: miter; stroke-miterlimit: opacity: 1;" vector-effect="non-scaling-stroke"  transform=" translate(-580.35, -325.45)" d="M 605.1 326.6 L 555.5 326.6 L 555.5 311.5 C 555.5 308.3 558.6 307.7 558.6 307.7 L 602 307.7 C 602 307.7 605.1 308.3 605.1 311.5 L 605.1 326.6 M 627.1 360.8 L 627.1 302 C 627.1 302 627.3000000000001 290.1 617.2 290.1 L 543.5 290.1 C 533.4 290.1 533.6 302 533.6 302 L 533.6 360.8 L 555.6 360.8 L 555.6 345 L 605.2 345 L 605.2 360.8 L 627.1 360.8 z" stroke-linecap="round" />
</g>
		<g transform="matrix(1 0 0 1 155.1 -0.05)" id="n7hYkEkfFlYRe4NfGh0Cr"  >
<path style="stroke: none; stroke-width: 1; stroke-dasharray: none; stroke-linecap: butt; stroke-dashoffset: 0; stroke-linejoin: miter; stroke-miterlimit: opacity: 1;" vector-effect="non-scaling-stroke"  transform=" translate(-480.25, -325.4)" d="M 504.6 337.8 C 504.6 341.90000000000003 502.20000000000005 344.3 496.8 344.3 L 454.8 344.3 L 454.8 331.2 L 496.8 331.2 C 502.2 331.2 504.6 333.8 504.6 338.59999999999997 M 502.7 312 C 502.7 316 500.4 318.7 496.3 318.7 L 454.8 318.7 L 454.8 305.5 L 496.3 305.5 C 500.3 305.5 502.7 308.5 502.7 312.6 M 523 308.6 C 523 294.70000000000005 514.6 290 497.3 290 L 434.90000000000003 290 L 434.90000000000003 360.8 L 504 360.8 C 516.4 360.8 525.6 357.6 525.6 342 C 525.6 331.3 522.1 326.3 512.6 325.1 L 512.6 324.8 C 518.6 323.1 523 320.7 523 308.6" stroke-linecap="round" />
</g>
		<g transform="matrix(1 0 0 1 56.25 0.05)" id="M07-V1bGFPfmwR0CD3HE-"  >
<path style="stroke: none; stroke-width: 1; stroke-dasharray: none; stroke-linecap: butt; stroke-dashoffset: 0; stroke-linejoin: miter; stroke-miterlimit: opacity: 1;" vector-effect="non-scaling-stroke"  transform=" translate(-381.4, -325.5)" d="M 404.3 317.4 C 404.3 322.5 402.1 324.79999999999995 396.3 324.79999999999995 L 359.1 324.79999999999995 L 359.1 307.59999999999997 L 394.3 307.59999999999997 C 401.1 307.59999999999997 404.3 308.79999999999995 404.3 314.99999999999994 L 404.3 317.4 M 425.4 315.6 L 425.4 311.1 C 425.4 298.40000000000003 420.9 290.1 404.2 290.1 L 337.4 290.1 L 337.4 360.90000000000003 L 359.09999999999997 360.90000000000003 L 359.09999999999997 342.50000000000006 L 394.49999999999994 342.50000000000006 C 401.19999999999993 342.50000000000006 403.3999999999999 344.90000000000003 403.3999999999999 352.40000000000003 L 403.3999999999999 360.90000000000003 L 425.0999999999999 360.90000000000003 L 425.0999999999999 348.90000000000003 C 425.0999999999999 337.3 419.69999999999993 334.40000000000003 413.2999999999999 333.3 L 413.2999999999999 333.1 C 423.2 330.6 425.4 325 425.4 315.6" stroke-linecap="round" />
</g>
		<g transform="matrix(1 0 0 1 -36.95 -0.05)" id="jM3gJKhmO5FS-snEvuaD9"  >
<path style="stroke: none; stroke-width: 1; stroke-dasharray: none; stroke-linecap: butt; stroke-dashoffset: 0; stroke-linejoin: miter; stroke-miterlimit: opacity: 1;" vector-effect="non-scaling-stroke"  transform=" translate(-288.2, -325.4)" d="M 327 290 L 327 305.8 L 270 305.8 L 270 318.40000000000003 L 323.6 318.40000000000003 L 323.6 331.70000000000005 L 270 331.70000000000005 L 270 345.40000000000003 L 327 345.40000000000003 L 327 360.8 L 249.4 360.8 L 249.4 290 z" stroke-linecap="round" />
</g>
		<g transform="matrix(1 0 0 1 -128.2 -0.05)" id="Udm6epkLUPi3yUJig8rjR"  >
<path style="stroke: none; stroke-width: 1; stroke-dasharray: none; stroke-linecap: butt; stroke-dashoffset: 0; stroke-linejoin: miter; stroke-miterlimit: opacity: 1;" vector-effect="non-scaling-stroke"  transform=" translate(-196.95, -325.4)" d="M 239.7 290 L 239.7 306.1 L 185.29999999999998 344.40000000000003 L 239.7 344.40000000000003 L 239.7 360.8 L 154.2 360.8 L 154.2 344.40000000000003 L 207.6 306.1 L 155.6 306.1 L 155.6 290 z" stroke-linecap="round" />
</g>
		<g transform="matrix(1 0 0 1 -192.4 0)" id="lz2f6_-7dA0xq3IYnxxMU"  >
<path style="stroke: none; stroke-width: 1; stroke-dasharray: none; stroke-linecap: butt; stroke-dashoffset: 0; stroke-linejoin: miter; stroke-miterlimit: opacity: 1;" vector-effect="non-scaling-stroke"  transform=" translate(-10.85, -35.35)" d="M 0 70.7 L 0 0 L 21.7 0 L 21.7 70.7 z" stroke-linecap="round" />
</g>
		<g transform="matrix(1 0 0 1 -256.6 -0.05)" id="Hhkf3vtninn-nzH7SSCPZ"  >
<path style="stroke: none; stroke-width: 1; stroke-dasharray: none; stroke-linecap: butt; stroke-dashoffset: 0; stroke-linejoin: miter; stroke-miterlimit: opacity: 1;" vector-effect="non-scaling-stroke"  transform=" translate(-68.55, -325.4)" d="M 93 337.8 C 93 341.90000000000003 90.6 344.3 85.2 344.3 L 43.2 344.3 L 43.2 331.2 L 85.2 331.2 C 90.60000000000001 331.2 93 333.8 93 338.59999999999997 M 91 312 C 91 316 88.7 318.7 84.7 318.7 L 43.2 318.7 L 43.2 305.5 L 84.7 305.5 C 88.7 305.5 91 308.5 91 312.6 M 111.3 308.6 C 111.3 294.70000000000005 102.89999999999999 290 85.6 290 L 23.2 290 L 23.2 360.8 L 92.3 360.8 C 104.7 360.8 113.9 357.6 113.9 342 C 113.9 331.3 110.4 326.3 100.9 325.1 L 100.9 324.8 C 106.9 323.1 111.3 320.7 111.3 308.6" stroke-linecap="round" />
</g>
</g>
</g>
</svg>